<?xml version="1.0" encoding="UTF-8" standalone="no"?>
<!-- Created with Inkscape (http://www.inkscape.org/) -->

<svg
   xmlns:dc="http://purl.org/dc/elements/1.1/"
   xmlns:cc="http://creativecommons.org/ns#"
   xmlns:rdf="http://www.w3.org/1999/02/22-rdf-syntax-ns#"
   xmlns:svg="http://www.w3.org/2000/svg"
   xmlns="http://www.w3.org/2000/svg"
   xmlns:sodipodi="http://sodipodi.sourceforge.net/DTD/sodipodi-0.dtd"
   xmlns:inkscape="http://www.inkscape.org/namespaces/inkscape"
   width="844.74994"
   height="572.875"
   id="svg2"
   version="1.1"
   inkscape:version="0.48.0 r9654"
   sodipodi:docname="PythagorasTree.svg">
  <sodipodi:namedview
     id="base"
     pagecolor="#ffffff"
     bordercolor="#666666"
     borderopacity="1.0"
     inkscape:pageopacity="0.0"
     inkscape:pageshadow="2"
     inkscape:zoom="0.65368308"
     inkscape:cx="497.37498"
     inkscape:cy="150.50002"
     inkscape:document-units="px"
     inkscape:current-layer="svg2"
     showgrid="false"
     inkscape:window-width="1400"
     inkscape:window-height="975"
     inkscape:window-x="0"
     inkscape:window-y="0"
     inkscape:window-maximized="1"
     fit-margin-top="0"
     fit-margin-left="0"
     fit-margin-right="0"
     fit-margin-bottom="0"
     showborder="true"
     inkscape:showpageshadow="false" />
  <defs
     id="defs4" />
  <metadata
     id="metadata7">
    <rdf:RDF>
      <cc:Work
         rdf:about="">
        <dc:format>image/svg+xml</dc:format>
        <dc:type
           rdf:resource="http://purl.org/dc/dcmitype/StillImage" />
        <dc:title />
      </cc:Work>
    </rdf:RDF>
  </metadata>
  <g
     id="layer1"
     inkscape:groupmode="layer"
     inkscape:label="Layer 1"
     transform="translate(94.580271,-49.937775)">
    <path
       id="path3290"
       d="m 402.79471,472.31275 0,150 -150,0 0,-150 -75,-74.99999 -75,0 -37.499994,37.49999 0,37.5 18.749998,18.75 18.749996,0 9.375,-9.375 0,-9.375 9.375,0 0,9.375 -9.375,0 m 0,0 9.375,9.375 0,-9.375 9.375,0 0,9.375 -9.375,0 m 0,0 -9.375,9.375 -9.375,-9.375 m 0,0 0,18.75 9.375,-9.375 9.375,9.375 9.375,0 0,9.375 -9.375,0 0,-9.375 m 0,0 -9.375,9.375 9.375,0 0,9.375 -9.375,0 0,-9.375 m 0,0 -9.375,-9.375 m 0,0 -18.749996,0 0,-18.75 m 0,0 -18.749998,18.75 18.749998,0 0,18.75 9.374999,9.375 9.374997,0 0,9.37499 -9.374997,0 0,-9.37499 m 0,0 -9.374999,9.37499 9.374999,0 0,9.375 -9.374999,0 0,-9.375 m 0,0 -9.374999,-9.37499 9.374999,-9.375 m 0,0 -18.749998,0 9.374999,9.375 -9.374999,9.37499 0,9.375 -9.374999,0 0,-9.375 9.374999,0 m 0,0 -9.374999,-9.37499 0,9.37499 -9.374999,0 0,-9.37499 9.374999,0 m 0,0 9.374999,-9.375 m 0,0 0,-18.75 m 0,0 -18.749999,-18.75 18.749999,-18.75 m 0,0 -37.499998,0 18.749999,18.75 -18.749999,18.75 0,18.75 9.374999,9.375 9.374999,0 0,9.37499 -9.374999,0 0,-9.37499 m 0,0 -9.374999,9.37499 9.374999,0 0,9.375 -9.374999,0 0,-9.375 m 0,0 -9.374999,-9.37499 9.374999,-9.375 m 0,0 -18.7499977,0 9.3749987,9.375 -9.3749987,9.37499 0,9.375 -9.37499875,0 0,-9.375 9.37499875,0 m 0,0 -9.37499891,-9.37499 0,9.37499 -9.37499869,0 0,-9.37499 9.37499869,0 m 0,0 9.37499891,-9.375 m 0,0 0,-18.75 18.7499977,0 m 0,0 -18.7499981,-18.75 0,18.75 -18.749998,0 -9.3749989,9.375 0,9.375 -9.374999,0 0,-9.375 9.374999,0 m 0,0 -9.374999,-9.375 0,9.375 -9.374999,0 0,-9.375 9.374999,0 m 0,0 9.374999,-9.375 9.3749989,9.375 m 0,0 0,-18.75 -9.3749989,9.375 -9.374999,-9.375 -9.374999,0 0,-9.375 9.374999,0 0,9.375 m 0,0 9.374999,-9.375 -9.374999,0 0,-9.375 9.374999,0 0,9.375 m 0,0 9.3749989,9.375 m 0,0 18.749998,0 m 0,0 18.7499981,-18.75 m 0,0 0,-37.5 37.499998,0 m 0,0 -37.499998,-37.49999 0,37.49999 -37.4999977,0 -18.7499983,18.75 0,18.75 9.374999,9.375 9.3749985,0 0,9.375 -9.3749985,0 0,-9.375 m 0,0 -9.374999,9.375 9.374999,0 0,9.375 -9.374999,0 0,-9.375 m 0,0 -9.374999,-9.375 9.374999,-9.375 m 0,0 -18.749998,0 9.374999,9.375 -9.374999,9.375 0,9.375 -9.374999,0 0,-9.375 9.374999,0 m 0,0 -9.374999,-9.375 0,9.375 -9.374999,0 0,-9.375 9.374999,0 m 0,0 9.374999,-9.375 m 0,0 0,-18.75 18.749998,0 m 0,0 -18.749999,-18.75 0,18.75 -18.749998,0 -9.374998,9.375 0,9.375 -9.374999,0 0,-9.375 9.374999,0 m 0,0 -9.374999,-9.375 0,9.375 -9.374999,0 0,-9.375 9.374999,0 m 0,0 9.374999,-9.375 9.374998,9.375 m 0,0 0,-18.75 -9.374998,9.375 -9.374999,-9.375 -9.374999,0 0,-9.375 9.374999,0 0,9.375 m 0,0 9.374999,-9.375 -9.374999,0 0,-9.37499 9.374999,0 0,9.37499 m 0,0 9.374998,9.375 m 0,0 18.749998,0 m 0,0 18.749999,-18.74999 18.7499983,18.74999 m 0,0 0,-37.49999 -18.7499983,18.74999 -18.749999,-18.74999 -18.749998,0 -9.374998,9.37499 0,9.375 -9.374999,0 0,-9.375 9.374999,0 m 0,0 -9.374999,-9.37499 0,9.37499 -9.374999,0 0,-9.37499 9.374999,0 m 0,0 9.374999,-9.375 9.374998,9.375 m 0,0 0,-18.75 -9.374998,9.375 -9.374999,-9.375 -9.374999,0 0,-9.375 9.374999,0 0,9.375 m 0,0 9.374999,-9.375 -9.374999,0 0,-9.375 9.374999,0 0,9.375 m 0,0 9.374998,9.375 m 0,0 18.749998,0 0,18.75 m 0,0 18.749999,-18.75 -18.749998,0 0,-18.75 -9.374999,-9.375 -9.374999,0 0,-9.375 9.374999,0 0,9.375 m 0,0 9.374999,-9.375 -9.374999,0 0,-9.375 9.374999,0 0,9.375 m 0,0 9.374999,9.375 -9.374999,9.375 m 0,0 18.749998,0 -9.374999,-9.375 9.374999,-9.375 0,-9.375 9.374999,0 0,9.375 -9.374999,0 m 0,0 9.374999,9.375 0,-9.375 9.3749985,0 0,9.375 -9.3749985,0 m 0,0 -9.374999,9.375 m 0,0 0,18.75 m 0,0 18.7499983,18.75 m 0,0 37.4999977,0 m 0,0 37.499998,-37.5 37.499994,37.5 m 0,0 0,-75 -37.499994,37.5 -37.499998,-37.5 -37.4999977,0 -18.7499983,18.75 0,18.75 9.374999,9.37499 9.3749985,0 0,9.375 -9.3749985,0 0,-9.375 m 0,0 -9.374999,9.375 9.374999,0 0,9.375 -9.374999,0 0,-9.375 m 0,0 -9.374999,-9.375 9.374999,-9.37499 m 0,0 -18.749998,0 9.374999,9.37499 -9.374999,9.375 0,9.375 -9.374999,0 0,-9.375 9.374999,0 m 0,0 -9.374999,-9.375 0,9.375 -9.374999,0 0,-9.375 9.374999,0 m 0,0 9.374999,-9.37499 m 0,0 0,-18.75 18.749998,0 m 0,0 -18.749999,-18.75 0,18.75 -18.749998,0 -9.374998,9.375 0,9.37499 -9.374999,0 0,-9.37499 9.374999,0 m 0,0 -9.374999,-9.375 0,9.375 -9.374999,0 0,-9.375 9.374999,0 m 0,0 9.374999,-9.375 9.374998,9.375 m 0,0 0,-18.75 -9.374998,9.375 -9.374999,-9.375 -9.374999,0 0,-9.375 9.374999,0 0,9.375 m 0,0 9.374999,-9.375 -9.374999,0 0,-9.375 9.374999,0 0,9.375 m 0,0 9.374998,9.375 m 0,0 18.749998,0 m 0,0 18.749999,-18.75 18.7499983,18.75 m 0,0 0,-37.5 -18.7499983,18.75 -18.749999,-18.75 -18.749998,0 -9.374998,9.375 0,9.375 -9.374999,0 0,-9.375 9.374999,0 m 0,0 -9.374999,-9.375 0,9.375 -9.374999,0 0,-9.375 9.374999,0 m 0,0 9.374999,-9.375 9.374998,9.375 m 0,0 0,-18.75 -9.374998,9.375 -9.374999,-9.375 -9.374999,0 0,-9.375 9.374999,0 0,9.375 m 0,0 9.374999,-9.375 -9.374999,0 0,-9.37499 9.374999,0 0,9.37499 m 0,0 9.374998,9.375 m 0,0 18.749998,0 0,18.75 m 0,0 18.749999,-18.75 -18.749998,0 0,-18.75 -9.374999,-9.37499 -9.374999,0 0,-9.375 9.374999,0 0,9.375 m 0,0 9.374999,-9.375 -9.374999,0 0,-9.375 9.374999,0 0,9.375 m 0,0 9.374999,9.375 -9.374999,9.37499 m 0,0 18.749998,0 -9.374999,-9.37499 9.374999,-9.375 0,-9.375 9.374999,0 0,9.375 -9.374999,0 m 0,0 9.374999,9.375 0,-9.375 9.3749985,0 0,9.375 -9.3749985,0 m 0,0 -9.374999,9.37499 m 0,0 0,18.75 m 0,0 18.7499983,18.75 m 0,0 37.4999977,0 0,37.5 m 0,0 37.499998,-37.5 -37.499998,0 0,-37.5 -18.7499981,-18.75 -18.749998,0 -9.3749989,9.375 0,9.375 -9.374999,0 0,-9.375 9.374999,0 m 0,0 -9.374999,-9.375 0,9.375 -9.374999,0 0,-9.375 9.374999,0 m 0,0 9.374999,-9.37499 9.3749989,9.37499 m 0,0 0,-18.74999 -9.3749989,9.375 -9.374999,-9.375 -9.374999,0 0,-9.375 9.374999,0 0,9.375 m 0,0 9.374999,-9.375 -9.374999,0 0,-9.375 9.374999,0 0,9.375 m 0,0 9.3749989,9.375 m 0,0 18.749998,0 0,18.74999 m 0,0 18.7499981,-18.74999 -18.7499977,0 0,-18.75 -9.37499891,-9.375 -9.37499869,0 0,-9.375 9.37499869,0 0,9.375 m 0,0 9.37499891,-9.375 -9.37499875,0 0,-9.375 9.37499875,0 0,9.375 m 0,0 9.3749987,9.375 -9.3749987,9.375 m 0,0 18.7499977,0 -9.374999,-9.375 9.374999,-9.375 0,-9.375 9.374999,0 0,9.375 -9.374999,0 m 0,0 9.374999,9.375 0,-9.375 9.374999,0 0,9.375 -9.374999,0 m 0,0 -9.374999,9.375 m 0,0 0,18.75 m 0,0 18.749999,18.74999 -18.749999,18.75 m 0,0 37.499998,0 -18.749999,-18.75 18.749999,-18.74999 0,-18.75 -9.374999,-9.375 -9.374999,0 0,-9.375 9.374999,0 0,9.375 m 0,0 9.374999,-9.375 -9.374999,0 0,-9.375 9.374999,0 0,9.375 m 0,0 9.374999,9.375 -9.374999,9.375 m 0,0 18.749998,0 -9.374999,-9.375 9.374999,-9.375 0,-9.375 9.374999,0 0,9.375 -9.374999,0 m 0,0 9.374999,9.375 0,-9.375 9.374997,0 0,9.375 -9.374997,0 m 0,0 -9.374999,9.375 m 0,0 0,18.75 -18.749998,0 m 0,0 18.749998,18.74999 0,-18.74999 18.749996,0 9.375,-9.375 0,-9.375 9.375,0 0,9.375 -9.375,0 m 0,0 9.375,9.375 0,-9.375 9.375,0 0,9.375 -9.375,0 m 0,0 -9.375,9.375 -9.375,-9.375 m 0,0 0,18.74999 9.375,-9.37499 9.375,9.37499 9.375,0 0,9.375 -9.375,0 0,-9.375 m 0,0 -9.375,9.375 9.375,0 0,9.375 -9.375,0 0,-9.375 m 0,0 -9.375,-9.375 m 0,0 -18.749996,0 m 0,0 -18.749998,18.75 m 0,0 0,37.5 m 0,0 37.499994,37.5 m 0,0 75,0 0,75 m 0,0 75,-75 -75,0 0,-75 -37.5,-37.5 -37.49999,0 -18.750001,18.75 0,18.75 9.374999,9.375 9.375002,0 0,9.375 -9.375002,0 0,-9.375 m 0,0 -9.374999,9.375 9.374998,0 0,9.37499 -9.374998,0 0,-9.37499 m 0,0 -9.374999,-9.375 9.374999,-9.375 m 0,0 -18.749998,0 9.374998,9.375 -9.374998,9.375 0,9.37499 -9.374999,0 0,-9.37499 9.374999,0 m 0,0 -9.374999,-9.375 0,9.375 -9.374999,0 0,-9.375 9.374999,0 m 0,0 9.374999,-9.375 m 0,0 0,-18.75 18.749998,0 m 0,0 -18.749999,-18.75 0,18.75 -18.749998,0 -9.374999,9.375 0,9.375 -9.374998,0 0,-9.375 9.374998,0 m 0,0 -9.374999,-9.375 0,9.375 -9.374998,0 0,-9.375 9.374998,0 m 0,0 9.374999,-9.375 9.374999,9.375 m 0,0 0,-18.75 -9.374999,9.375 -9.374999,-9.375 -9.374998,0 0,-9.375 9.374998,0 0,9.375 m 0,0 9.374999,-9.375 -9.374998,0 0,-9.375 9.374998,0 0,9.375 m 0,0 9.374999,9.375 m 0,0 18.749998,0 m 0,0 18.749999,-18.75 18.750001,18.75 m 0,0 0,-37.5 -18.750001,18.75 -18.749999,-18.75 -18.749998,0 -9.374999,9.375 0,9.375 -9.374998,0 0,-9.375 9.374998,0 m 0,0 -9.374999,-9.375 0,9.375 -9.374998,0 0,-9.375 9.374998,0 m 0,0 9.374999,-9.37499 9.374999,9.37499 m 0,0 0,-18.74999 -9.374999,9.375 -9.374999,-9.375 -9.374998,0 0,-9.375 9.374998,0 0,9.375 m 0,0 9.374999,-9.375 -9.374998,0 0,-9.375 9.374998,0 0,9.375 m 0,0 9.374999,9.375 m 0,0 18.749998,0 0,18.74999 m 0,0 18.749999,-18.74999 -18.749998,0 0,-18.75 -9.374999,-9.375 -9.374999,0 0,-9.375 9.374999,0 0,9.375 m 0,0 9.374999,-9.375 -9.374999,0 0,-9.375 9.374999,0 0,9.375 m 0,0 9.374998,9.375 -9.374998,9.375 m 0,0 18.749998,0 -9.374999,-9.375 9.374999,-9.375 0,-9.375 9.374998,0 0,9.375 -9.374998,0 m 0,0 9.374999,9.375 0,-9.375 9.375002,0 0,9.375 -9.375002,0 m 0,0 -9.374999,9.375 m 0,0 0,18.75 m 0,0 18.750001,18.74999 m 0,0 37.49999,0 0,37.5 m 0,0 37.5,-37.5 -37.49999,0 0,-37.49999 -18.75,-18.75 -18.75,0 -9.375,9.375 0,9.375 -9.374999,0 0,-9.375 9.374999,0 m 0,0 -9.374999,-9.375 0,9.375 -9.374999,0 0,-9.375 9.374999,0 m 0,0 9.374999,-9.375 9.375,9.375 m 0,0 0,-18.75 -9.375,9.375 -9.374999,-9.375 -9.374999,0 0,-9.374999 9.374999,0 0,9.374999 m 0,0 9.374999,-9.374999 -9.374999,0 0,-9.374999 9.374999,0 0,9.374999 m 0,0 9.375,9.374999 m 0,0 18.75,0 0,18.75 m 0,0 18.75,-18.750001 -18.75,0 0,-18.749998 -9.375,-9.374998 -9.375,0 0,-9.374999 9.375,0 0,9.374999 m 0,0 9.375,-9.374999 -9.375,0 0,-9.374999 9.375,0 0,9.374999 m 0,0 9.375,9.374999 -9.375,9.374998 m 0,0 18.75,0 -9.375,-9.374998 9.375,-9.374999 0,-9.374999 9.37499,0 0,9.374999 -9.37499,0 m 0,0 9.37499,9.374999 0,-9.374999 9.375,0 0,9.374999 -9.375,0 m 0,0 -9.37499,9.374998 m 0,0 0,18.749998 m 0,0 18.74999,18.750001 -18.74999,18.75 m 0,0 37.49999,0 -18.75,-18.75 18.75,-18.750001 0,-18.749998 -9.375,-9.374998 -9.375,0 0,-9.374999 9.375,0 0,9.374999 m 0,0 9.375,-9.374999 -9.375,0 0,-9.374999 9.375,0 0,9.374999 m 0,0 9.375,9.374999 -9.375,9.374998 m 0,0 18.75,0 -9.375,-9.374998 9.375,-9.374999 0,-9.374999 9.375,0 0,9.374999 -9.375,0 m 0,0 9.375,9.374999 0,-9.374999 9.375,0 0,9.374999 -9.375,0 m 0,0 -9.375,9.374998 m 0,0 0,18.749998 -18.75,0 m 0,0 18.75,18.750001 0,-18.75 18.75,0 9.375,-9.374999 0,-9.374999 9.375,0 0,9.374999 -9.375,0 m 0,0 9.375,9.374999 0,-9.374999 9.375,0 0,9.374999 -9.375,0 m 0,0 -9.375,9.375 -9.375,-9.375 m 0,0 0,18.75 9.375,-9.375 9.375,9.375 9.375,0 0,9.375 -9.375,0 0,-9.375 m 0,0 -9.375,9.375 9.375,0 0,9.375 -9.375,0 0,-9.375 m 0,0 -9.375,-9.375 m 0,0 -18.75,0 m 0,0 -18.75,18.75 m 0,0 0,37.49999 m 0,0 37.5,37.5 -37.5,37.5 m 0,0 75,0 -37.5,-37.5 37.5,-37.5 0,-37.49999 -18.75,-18.75 -18.75,0 -9.375,9.375 0,9.375 -9.37499,0 0,-9.375 9.37499,0 m 0,0 -9.37499,-9.375 0,9.375 -9.375,0 0,-9.375 9.375,0 m 0,0 9.37499,-9.375 9.375,9.375 m 0,0 0,-18.75 -9.375,9.375 -9.37499,-9.375 -9.375,0 0,-9.374999 9.375,0 0,9.374999 m 0,0 9.37499,-9.374999 -9.37499,0 0,-9.374999 9.37499,0 0,9.374999 m 0,0 9.375,9.374999 m 0,0 18.75,0 0,18.75 m 0,0 18.75,-18.750001 -18.75,0 0,-18.749998 -9.375,-9.374998 -9.375,0 0,-9.374999 9.375,0 0,9.374999 m 0,0 9.375,-9.374999 -9.375,0 0,-9.374999 9.375,0 0,9.374999 m 0,0 9.375,9.374999 -9.375,9.374998 m 0,0 18.75,0 -9.375,-9.374998 9.375,-9.374999 0,-9.374999 9.375,0 0,9.374999 -9.375,0 m 0,0 9.375,9.374999 0,-9.374999 9.375,0 0,9.374999 -9.375,0 m 0,0 -9.375,9.374998 m 0,0 0,18.749998 m 0,0 18.75,18.750001 -18.75,18.75 m 0,0 37.5,0 -18.75,-18.75 18.75,-18.750001 0,-18.749998 -9.375,-9.374998 -9.375,0 0,-9.374999 9.375,0 0,9.374999 m 0,0 9.375,-9.374999 -9.375,0 0,-9.374999 9.375,0 0,9.374999 m 0,0 9.375,9.374999 -9.375,9.374998 m 0,0 18.75,0 -9.375,-9.374998 9.375,-9.374999 0,-9.374999 9.37499,0 0,9.374999 -9.37499,0 m 0,0 9.37499,9.374999 0,-9.374999 9.375,0 0,9.374999 -9.375,0 m 0,0 -9.37499,9.374998 m 0,0 0,18.749998 -18.75,0 m 0,0 18.75,18.750001 0,-18.75 18.74999,0 9.375,-9.374999 0,-9.374999 9.375,0 0,9.374999 -9.375,0 m 0,0 9.375,9.374999 0,-9.374999 9.375,0 0,9.374999 -9.375,0 m 0,0 -9.375,9.375 -9.375,-9.375 m 0,0 0,18.75 9.375,-9.375 9.375,9.375 9.375,0 0,9.375 -9.375,0 0,-9.375 m 0,0 -9.375,9.375 9.375,0 0,9.375 -9.375,0 0,-9.375 m 0,0 -9.375,-9.375 m 0,0 -18.74999,0 m 0,0 -18.75,18.75 m 0,0 0,37.49999 -37.5,0 m 0,0 37.5,37.5 0,-37.5 37.5,0 18.74999,-18.74999 0,-18.75 -9.37499,-9.375 -9.375,0 0,-9.375 9.375,0 0,9.375 m 0,0 9.37499,-9.375 -9.37499,0 0,-9.375 9.37499,0 0,9.375 m 0,0 9.375,9.375 -9.375,9.375 m 0,0 18.75,0 -9.375,-9.375 9.375,-9.375 0,-9.375 9.375,0 0,9.375 -9.375,0 m 0,0 9.375,9.375 0,-9.375 9.375,0 0,9.375 -9.375,0 m 0,0 -9.375,9.375 m 0,0 0,18.75 -18.75,0 m 0,0 18.75,18.74999 0,-18.74999 18.75,0 9.375,-9.375 0,-9.375 9.375,0 0,9.375 -9.375,0 m 0,0 9.375,9.375 0,-9.375 9.375,0 0,9.375 -9.375,0 m 0,0 -9.375,9.375 -9.375,-9.375 m 0,0 0,18.74999 9.375,-9.37499 9.375,9.37499 9.375,0 0,9.375 -9.375,0 0,-9.375 m 0,0 -9.375,9.375 9.375,0 0,9.375 -9.375,0 0,-9.375 m 0,0 -9.375,-9.375 m 0,0 -18.75,0 m 0,0 -18.75,18.75 -18.74999,-18.75 m 0,0 0,37.5 18.74999,-18.75 18.75,18.75 18.75,0 9.375,-9.375 0,-9.375 9.375,0 0,9.375 -9.375,0 m 0,0 9.375,9.375 0,-9.375 9.375,0 0,9.375 -9.375,0 m 0,0 -9.375,9.375 -9.375,-9.375 m 0,0 0,18.75 9.375,-9.375 9.375,9.375 9.375,0 0,9.375 -9.375,0 0,-9.375 m 0,0 -9.375,9.375 9.375,0 0,9.375 -9.375,0 0,-9.375 m 0,0 -9.375,-9.375 m 0,0 -18.75,0 0,-18.75 m 0,0 -18.75,18.75 18.75,0 0,18.75 9.375,9.375 9.375,0 0,9.375 -9.375,0 0,-9.375 m 0,0 -9.375,9.375 9.375,0 0,9.37499 -9.375,0 0,-9.37499 m 0,0 -9.375,-9.375 9.375,-9.375 m 0,0 -18.75,0 9.375,9.375 -9.375,9.375 0,9.37499 -9.37499,0 0,-9.37499 9.37499,0 m 0,0 -9.37499,-9.375 0,9.375 -9.375,0 0,-9.375 9.375,0 m 0,0 9.37499,-9.375 m 0,0 0,-18.75 m 0,0 -18.74999,-18.75 m 0,0 -37.5,0 m 0,0 -37.5,37.5 m 0,0 0,75 m 0,0 75,75 -75,74.99999 m 0,0 150,0 -75,-74.99999 75,-75 0,-75 -37.5,-37.5 -37.5,0 -18.74999,18.75 0,18.75 9.37499,9.375 9.375,0 0,9.375 -9.375,0 0,-9.375 m 0,0 -9.37499,9.375 9.37499,0 0,9.37499 -9.37499,0 0,-9.37499 m 0,0 -9.375,-9.375 9.375,-9.375 m 0,0 -18.75,0 9.375,9.375 -9.375,9.375 0,9.37499 -9.375,0 0,-9.37499 9.375,0 m 0,0 -9.375,-9.375 0,9.375 -9.375,0 0,-9.375 9.375,0 m 0,0 9.375,-9.375 m 0,0 0,-18.75 18.75,0 m 0,0 -18.75,-18.75 0,18.75 -18.75,0 -9.375,9.375 0,9.375 -9.375,0 0,-9.375 9.375,0 m 0,0 -9.375,-9.375 0,9.375 -9.375,0 0,-9.375 9.375,0 m 0,0 9.375,-9.375 9.375,9.375 m 0,0 0,-18.75 -9.375,9.375 -9.375,-9.375 -9.375,0 0,-9.375 9.375,0 0,9.375 m 0,0 9.375,-9.375 -9.375,0 0,-9.375 9.375,0 0,9.375 m 0,0 9.375,9.375 m 0,0 18.75,0 m 0,0 18.75,-18.75 18.74999,18.75 m 0,0 0,-37.5 -18.74999,18.75 -18.75,-18.75 -18.75,0 -9.375,9.375 0,9.375 -9.375,0 0,-9.375 9.375,0 m 0,0 -9.375,-9.375 0,9.375 -9.375,0 0,-9.375 9.375,0 m 0,0 9.375,-9.37499 9.375,9.37499 m 0,0 0,-18.74999 -9.375,9.375 -9.375,-9.375 -9.375,0 0,-9.375 9.375,0 0,9.375 m 0,0 9.375,-9.375 -9.375,0 0,-9.375 9.375,0 0,9.375 m 0,0 9.375,9.375 m 0,0 18.75,0 0,18.74999 m 0,0 18.75,-18.74999 -18.75,0 0,-18.75 -9.375,-9.375 -9.375,0 0,-9.375 9.375,0 0,9.375 m 0,0 9.375,-9.375 -9.375,0 0,-9.375 9.375,0 0,9.375 m 0,0 9.375,9.375 -9.375,9.375 m 0,0 18.75,0 -9.375,-9.375 9.375,-9.375 0,-9.375 9.37499,0 0,9.375 -9.37499,0 m 0,0 9.37499,9.375 0,-9.375 9.375,0 0,9.375 -9.375,0 m 0,0 -9.37499,9.375 m 0,0 0,18.75 m 0,0 18.74999,18.74999 m 0,0 37.5,0 0,37.5 m 0,0 37.5,-37.5 -37.5,0 0,-37.49999 -18.75,-18.75 -18.74999,0 -9.375,9.375 0,9.375 -9.375,0 0,-9.375 9.375,0 m 0,0 -9.375,-9.375 0,9.375 -9.375,0 0,-9.375 9.375,0 m 0,0 9.375,-9.375 9.375,9.375 m 0,0 0,-18.75 -9.375,9.375 -9.375,-9.375 -9.375,0 0,-9.374999 9.375,0 0,9.374999 m 0,0 9.375,-9.374999 -9.375,0 0,-9.374999 9.375,0 0,9.374999 m 0,0 9.375,9.374999 m 0,0 18.74999,0 0,18.75 m 0,0 18.75,-18.750001 -18.75,0 0,-18.749998 -9.37499,-9.374998 -9.375,0 0,-9.374999 9.375,0 0,9.374999 m 0,0 9.37499,-9.374999 -9.37499,0 0,-9.374999 9.37499,0 0,9.374999 m 0,0 9.375,9.374999 -9.375,9.374998 m 0,0 18.75,0 -9.375,-9.374998 9.375,-9.374999 0,-9.374999 9.375,0 0,9.374999 -9.375,0 m 0,0 9.375,9.374999 0,-9.374999 9.375,0 0,9.374999 -9.375,0 m 0,0 -9.375,9.374998 m 0,0 0,18.749998 m 0,0 18.75,18.750001 -18.75,18.75 m 0,0 37.5,0 -18.75,-18.75 18.75,-18.750001 0,-18.749998 -9.375,-9.374998 -9.375,0 0,-9.374999 9.375,0 0,9.374999 m 0,0 9.375,-9.374999 -9.375,0 0,-9.374999 9.375,0 0,9.374999 m 0,0 9.375,9.374999 -9.375,9.374998 m 0,0 18.75,0 -9.375,-9.374998 9.375,-9.374999 0,-9.374999 9.375,0 0,9.374999 -9.375,0 m 0,0 9.375,9.374999 0,-9.374999 9.375,0 0,9.374999 -9.375,0 m 0,0 -9.375,9.374998 m 0,0 0,18.749998 -18.75,0 m 0,0 18.75,18.750001 0,-18.75 18.75,0 9.375,-9.374999 0,-9.374999 9.37499,0 0,9.374999 -9.37499,0 m 0,0 9.37499,9.374999 0,-9.374999 9.375,0 0,9.374999 -9.375,0 m 0,0 -9.37499,9.375 -9.375,-9.375 m 0,0 0,18.75 9.375,-9.375 9.37499,9.375 9.375,0 0,9.375 -9.375,0 0,-9.375 m 0,0 -9.37499,9.375 9.37499,0 0,9.375 -9.37499,0 0,-9.375 m 0,0 -9.375,-9.375 m 0,0 -18.75,0 m 0,0 -18.75,18.75 m 0,0 0,37.49999 m 0,0 37.5,37.5 -37.5,37.5 m 0,0 75,0 -37.5,-37.5 37.5,-37.5 0,-37.49999 -18.75,-18.75 -18.75,0 -9.375,9.375 0,9.375 -9.375,0 0,-9.375 9.375,0 m 0,0 -9.375,-9.375 0,9.375 -9.375,0 0,-9.375 9.375,0 m 0,0 9.375,-9.375 9.375,9.375 m 0,0 0,-18.75 -9.375,9.375 -9.375,-9.375 -9.375,0 0,-9.374999 9.375,0 0,9.374999 m 0,0 9.375,-9.374999 -9.375,0 0,-9.374999 9.375,0 0,9.374999 m 0,0 9.375,9.374999 m 0,0 18.75,0 0,18.75 m 0,0 18.75,-18.750001 -18.75,0 0,-18.749998 -9.375,-9.374998 -9.375,0 0,-9.374999 9.375,0 0,9.374999 m 0,0 9.375,-9.374999 -9.375,0 0,-9.374999 9.375,0 0,9.374999 m 0,0 9.375,9.374999 -9.375,9.374998 m 0,0 18.75,0 -9.375,-9.374998 9.375,-9.374999 0,-9.374999 9.375,0 0,9.374999 -9.375,0 m 0,0 9.375,9.374999 0,-9.374999 9.375,0 0,9.374999 -9.375,0 m 0,0 -9.375,9.374998 m 0,0 0,18.749998 m 0,0 18.75,18.750001 -18.75,18.75 m 0,0 37.49999,0 -18.74999,-18.75 18.74999,-18.750001 0,-18.749998 -9.37499,-9.374998 -9.375,0 0,-9.374999 9.375,0 0,9.374999 m 0,0 9.37499,-9.374999 -9.37499,0 0,-9.374999 9.37499,0 0,9.374999 m 0,0 9.375,9.374999 -9.375,9.374998 m 0,0 18.75,0 -9.375,-9.374998 9.375,-9.374999 0,-9.374999 9.375,0 0,9.374999 -9.375,0 m 0,0 9.375,9.374999 0,-9.374999 9.375,0 0,9.374999 -9.375,0 m 0,0 -9.375,9.374998 m 0,0 0,18.749998 -18.75,0 m 0,0 18.75,18.750001 0,-18.75 18.75,0 9.375,-9.374999 0,-9.374999 9.375,0 0,9.374999 -9.375,0 m 0,0 9.375,9.374999 0,-9.374999 9.375,0 0,9.374999 -9.375,0 m 0,0 -9.375,9.375 -9.375,-9.375 m 0,0 0,18.75 9.375,-9.375 9.375,9.375 9.375,0 0,9.375 -9.375,0 0,-9.375 m 0,0 -9.375,9.375 9.375,0 0,9.375 -9.375,0 0,-9.375 m 0,0 -9.375,-9.375 m 0,0 -18.75,0 m 0,0 -18.75,18.75 m 0,0 0,37.49999 -37.49999,0 m 0,0 37.5,37.5 0,-37.5 37.49999,0 18.75,-18.74999 0,-18.75 -9.375,-9.375 -9.375,0 0,-9.375 9.375,0 0,9.375 m 0,0 9.375,-9.375 -9.375,0 0,-9.375 9.375,0 0,9.375 m 0,0 9.375,9.375 -9.375,9.375 m 0,0 18.75,0 -9.375,-9.375 9.375,-9.375 0,-9.375 9.375,0 0,9.375 -9.375,0 m 0,0 9.375,9.375 0,-9.375 9.375,0 0,9.375 -9.375,0 m 0,0 -9.375,9.375 m 0,0 0,18.75 -18.75,0 m 0,0 18.75,18.74999 0,-18.74999 18.75,0 9.375,-9.375 0,-9.375 9.375,0 0,9.375 -9.375,0 m 0,0 9.375,9.375 0,-9.375 9.37499,0 0,9.375 -9.37499,0 m 0,0 -9.375,9.375 -9.375,-9.375 m 0,0 0,18.74999 9.375,-9.37499 9.375,9.37499 9.37499,0 0,9.375 -9.37499,0 0,-9.375 m 0,0 -9.375,9.375 9.375,0 0,9.375 -9.375,0 0,-9.375 m 0,0 -9.375,-9.375 m 0,0 -18.75,0 m 0,0 -18.75,18.75 -18.75,-18.75 m 0,0 0,37.5 18.75,-18.75 18.75,18.75 18.75,0 9.375,-9.375 0,-9.375 9.375,0 0,9.375 -9.375,0 m 0,0 9.375,9.375 0,-9.375 9.37499,0 0,9.375 -9.37499,0 m 0,0 -9.375,9.375 -9.375,-9.375 m 0,0 0,18.75 9.375,-9.375 9.375,9.375 9.37499,0 0,9.375 -9.37499,0 0,-9.375 m 0,0 -9.375,9.375 9.375,0 0,9.375 -9.375,0 0,-9.375 m 0,0 -9.375,-9.375 m 0,0 -18.75,0 0,-18.75 m 0,0 -18.75,18.75 18.75,0 0,18.75 9.375,9.375 9.375,0 0,9.375 -9.375,0 0,-9.375 m 0,0 -9.375,9.375 9.375,0 0,9.37499 -9.375,0 0,-9.37499 m 0,0 -9.375,-9.375 9.375,-9.375 m 0,0 -18.75,0 9.375,9.375 -9.375,9.375 0,9.37499 -9.375,0 0,-9.37499 9.375,0 m 0,0 -9.375,-9.375 0,9.375 -9.375,0 0,-9.375 9.375,0 m 0,0 9.375,-9.375 m 0,0 0,-18.75 m 0,0 -18.75,-18.75 m 0,0 -37.49999,0 m 0,0 -37.5,37.5 m 0,0 0,75 -75,0 m 0,0 75,75 0,-75 75,0 37.49999,-37.5 0,-37.5 -18.74999,-18.75 -18.75,0 -9.375,9.375 0,9.375 -9.375,0 0,-9.375 9.375,0 m 0,0 -9.375,-9.375 0,9.375 -9.375,0 0,-9.375 9.375,0 m 0,0 9.375,-9.37499 9.375,9.37499 m 0,0 0,-18.74999 -9.375,9.375 -9.375,-9.375 -9.375,0 0,-9.375 9.375,0 0,9.375 m 0,0 9.375,-9.375 -9.375,0 0,-9.375 9.375,0 0,9.375 m 0,0 9.375,9.375 m 0,0 18.75,0 0,18.74999 m 0,0 18.74999,-18.74999 -18.74999,0 0,-18.75 -9.375,-9.375 -9.375,0 0,-9.375 9.375,0 0,9.375 m 0,0 9.375,-9.375 -9.375,0 0,-9.375 9.375,0 0,9.375 m 0,0 9.375,9.375 -9.375,9.375 m 0,0 18.74999,0 -9.37499,-9.375 9.37499,-9.375 0,-9.375 9.375,0 0,9.375 -9.375,0 m 0,0 9.375,9.375 0,-9.375 9.375,0 0,9.375 -9.375,0 m 0,0 -9.375,9.375 m 0,0 0,18.75 m 0,0 18.75,18.74999 -18.75,18.75 m 0,0 37.5,0 -18.75,-18.75 18.75,-18.74999 0,-18.75 -9.375,-9.375 -9.375,0 0,-9.375 9.375,0 0,9.375 m 0,0 9.375,-9.375 -9.375,0 0,-9.375 9.375,0 0,9.375 m 0,0 9.375,9.375 -9.375,9.375 m 0,0 18.75,0 -9.375,-9.375 9.375,-9.375 0,-9.375 9.375,0 0,9.375 -9.375,0 m 0,0 9.375,9.375 0,-9.375 9.375,0 0,9.375 -9.375,0 m 0,0 -9.375,9.375 m 0,0 0,18.75 -18.75,0 m 0,0 18.75,18.74999 0,-18.74999 18.75,0 9.375,-9.375 0,-9.375 9.375,0 0,9.375 -9.375,0 m 0,0 9.375,9.375 0,-9.375 9.37499,0 0,9.375 -9.37499,0 m 0,0 -9.375,9.375 -9.375,-9.375 m 0,0 0,18.74999 9.375,-9.37499 9.375,9.37499 9.37499,0 0,9.375 -9.37499,0 0,-9.375 m 0,0 -9.375,9.375 9.375,0 0,9.375 -9.375,0 0,-9.375 m 0,0 -9.375,-9.375 m 0,0 -18.75,0 m 0,0 -18.75,18.75 m 0,0 0,37.5 -37.5,0 m 0,0 37.5,37.5 0,-37.5 37.5,0 18.75,-18.75 0,-18.75 -9.375,-9.37499 -9.375,0 0,-9.375 9.375,0 0,9.375 m 0,0 9.375,-9.375 -9.375,0 0,-9.375 9.375,0 0,9.375 m 0,0 9.375,9.375 -9.375,9.37499 m 0,0 18.75,0 -9.375,-9.37499 9.375,-9.375 0,-9.375 9.37499,0 0,9.375 -9.37499,0 m 0,0 9.375,9.375 0,-9.375 9.37499,0 0,9.375 -9.37499,0 m 0,0 -9.375,9.37499 m 0,0 0,18.75 -18.75,0 m 0,0 18.75,18.75 0,-18.75 18.74999,0 9.375,-9.375 0,-9.37499 9.375,0 0,9.37499 -9.375,0 m 0,0 9.375,9.375 0,-9.375 9.375,0 0,9.375 -9.375,0 m 0,0 -9.375,9.375 -9.375,-9.375 m 0,0 0,18.75 9.375,-9.375 9.375,9.375 9.375,0 0,9.375 -9.375,0 0,-9.375 m 0,0 -9.375,9.375 9.375,0 0,9.375 -9.375,0 0,-9.375 m 0,0 -9.375,-9.375 m 0,0 -18.74999,0 m 0,0 -18.75,18.75 -18.75,-18.75 m 0,0 0,37.5 18.75,-18.75 18.75,18.75 18.74999,0 9.375,-9.375 0,-9.375 9.375,0 0,9.375 -9.375,0 m 0,0 9.375,9.375 0,-9.375 9.375,0 0,9.375 -9.375,0 m 0,0 -9.375,9.375 -9.375,-9.375 m 0,0 0,18.75 9.375,-9.375 9.375,9.375 9.375,0 0,9.375 -9.375,0 0,-9.375 m 0,0 -9.375,9.375 9.375,0 0,9.37499 -9.375,0 0,-9.37499 m 0,0 -9.375,-9.375 m 0,0 -18.74999,0 0,-18.75 m 0,0 -18.75,18.75 18.75,0 0,18.75 9.375,9.37499 9.37499,0 0,9.375 -9.37499,0 0,-9.375 m 0,0 -9.375,9.375 9.37499,0 0,9.375 -9.37499,0 0,-9.375 m 0,0 -9.375,-9.375 9.375,-9.37499 m 0,0 -18.75,0 9.375,9.37499 -9.375,9.375 0,9.375 -9.375,0 0,-9.375 9.375,0 m 0,0 -9.375,-9.375 0,9.375 -9.375,0 0,-9.375 9.375,0 m 0,0 9.375,-9.37499 m 0,0 0,-18.75 m 0,0 -18.75,-18.75 m 0,0 -37.5,0 m 0,0 -37.5,37.5 -37.49999,-37.5 m 0,0 0,75 37.49999,-37.5 37.5,37.5 37.5,0 18.75,-18.75 0,-18.75 -9.375,-9.375 -9.375,0 0,-9.375 9.375,0 0,9.375 m 0,0 9.375,-9.375 -9.375,0 0,-9.375 9.375,0 0,9.375 m 0,0 9.375,9.375 -9.375,9.375 m 0,0 18.75,0 -9.375,-9.375 9.375,-9.375 0,-9.375 9.37499,0 0,9.375 -9.37499,0 m 0,0 9.375,9.375 0,-9.375 9.37499,0 0,9.375 -9.37499,0 m 0,0 -9.375,9.375 m 0,0 0,18.75 -18.75,0 m 0,0 18.75,18.75 0,-18.75 18.74999,0 9.375,-9.375 0,-9.375 9.375,0 0,9.375 -9.375,0 m 0,0 9.375,9.375 0,-9.375 9.375,0 0,9.375 -9.375,0 m 0,0 -9.375,9.375 -9.375,-9.375 m 0,0 0,18.75 9.375,-9.375 9.375,9.375 9.375,0 0,9.37499 -9.375,0 0,-9.37499 m 0,0 -9.375,9.37499 9.375,0 0,9.375 -9.375,0 0,-9.375 m 0,0 -9.375,-9.37499 m 0,0 -18.74999,0 m 0,0 -18.75,18.74999 -18.75,-18.74999 m 0,0 0,37.49999 18.75,-18.74999 18.75,18.74999 18.74999,0 9.375,-9.375 0,-9.37499 9.375,0 0,9.37499 -9.375,0 m 0,0 9.375,9.375 0,-9.375 9.375,0 0,9.375 -9.375,0 m 0,0 -9.375,9.375 -9.375,-9.375 m 0,0 0,18.75 9.375,-9.375 9.375,9.375 9.375,0 0,9.375 -9.375,0 0,-9.375 m 0,0 -9.375,9.375 9.375,0 0,9.375 -9.375,0 0,-9.375 m 0,0 -9.375,-9.375 m 0,0 -18.74999,0 0,-18.75 m 0,0 -18.75,18.75 18.75,0 0,18.75 9.375,9.375 9.37499,0 0,9.375 -9.37499,0 0,-9.375 m 0,0 -9.375,9.375 9.37499,0 0,9.375 -9.37499,0 0,-9.375 m 0,0 -9.375,-9.375 9.375,-9.375 m 0,0 -18.75,0 9.375,9.375 -9.375,9.375 0,9.375 -9.375,0 0,-9.375 9.375,0 m 0,0 -9.375,-9.375 0,9.375 -9.375,0 0,-9.375 9.375,0 m 0,0 9.375,-9.375 m 0,0 0,-18.75 m 0,0 -18.75,-18.75 m 0,0 -37.5,0 0,-37.49999 m 0,0 -37.5,37.49999 37.5,0 0,37.5 18.75,18.75 18.75,0 9.375,-9.375 0,-9.375 9.375,0 0,9.375 -9.375,0 m 0,0 9.375,9.375 0,-9.375 9.37499,0 0,9.375 -9.37499,0 m 0,0 -9.375,9.375 -9.375,-9.375 m 0,0 0,18.75 9.375,-9.375 9.375,9.375 9.37499,0 0,9.375 -9.37499,0 0,-9.375 m 0,0 -9.375,9.375 9.375,0 0,9.375 -9.375,0 0,-9.375 m 0,0 -9.375,-9.375 m 0,0 -18.75,0 0,-18.75 m 0,0 -18.75,18.75 18.75,0 0,18.75 9.375,9.375 9.375,0 0,9.37499 -9.375,0 0,-9.37499 m 0,0 -9.375,9.37499 9.375,0 0,9.375 -9.375,0 0,-9.375 m 0,0 -9.375,-9.37499 9.375,-9.375 m 0,0 -18.75,0 9.375,9.375 -9.375,9.37499 0,9.375 -9.375,0 0,-9.375 9.375,0 m 0,0 -9.375,-9.37499 0,9.37499 -9.375,0 0,-9.37499 9.375,0 m 0,0 9.375,-9.375 m 0,0 0,-18.75 m 0,0 -18.75,-18.75 18.75,-18.75 m 0,0 -37.5,0 18.75,18.75 -18.75,18.75 0,18.75 9.375,9.375 9.375,0 0,9.37499 -9.375,0 0,-9.37499 m 0,0 -9.375,9.37499 9.375,0 0,9.375 -9.375,0 0,-9.375 m 0,0 -9.37499,-9.37499 9.37499,-9.375 m 0,0 -18.74999,0 9.375,9.375 -9.375,9.37499 0,9.375 -9.375,0 0,-9.375 9.375,0 m 0,0 -9.375,-9.37499 0,9.37499 -9.375,0 0,-9.37499 9.375,0 m 0,0 9.375,-9.375 m 0,0 0,-18.75 18.74999,0 m 0,0 -18.74999,-18.75 0,18.75 -18.75,0 -9.375,9.375 0,9.375 -9.375,0 0,-9.375 9.375,0 m 0,0 -9.375,-9.375 0,9.375 -9.375,0 0,-9.375 9.375,0 m 0,0 9.375,-9.375 9.375,9.375 m 0,0 0,-18.75 -9.375,9.375 -9.375,-9.375 -9.375,0 0,-9.375 9.375,0 0,9.375 m 0,0 9.375,-9.375 -9.375,0 0,-9.375 9.375,0 0,9.375 m 0,0 9.375,9.375 m 0,0 18.75,0 m 0,0 18.74999,-18.75 m 0,0 0,-37.5 m 0,0 -37.49999,-37.49999 m 0,0 -75,0 m 0,0 -75,74.99999"
       style="fill:none;stroke:#000000;stroke-width:1px;stroke-linecap:butt;stroke-linejoin:miter;stroke-opacity:1"
       inkscape:connector-curvature="0" />
  </g>
</svg>
